<svg width="567" height="356" viewBox="0 0 567 356" fill="none" xmlns="http://www.w3.org/2000/svg">
<path fill-rule="evenodd" clip-rule="evenodd" d="M566.999 283C566.729 126.657 439.906 0 283.5 0C127.094 0 0.269877 126.657 0 283H55.0001C55.2711 157.585 157.47 56 283.5 56C409.529 56 511.728 157.585 511.999 283H566.999Z" fill="#6F96B8"/>
<path fill-rule="evenodd" clip-rule="evenodd" d="M55 283C55.271 157.585 157.47 56 283.499 56C409.529 56 511.728 157.585 511.999 283H452.999C452.728 189.618 376.721 114 282.999 114C189.278 114 113.271 189.618 113 283H55Z" fill="#6487A5"/>
<path fill-rule="evenodd" clip-rule="evenodd" d="M452.999 283H393.998C393.728 222.203 344.135 173 282.999 173C221.863 173 172.271 222.203 172 283H113C113.27 189.618 189.278 114 282.999 114C376.72 114 452.728 189.618 452.999 283Z" fill="#597892"/>
<path fill-rule="evenodd" clip-rule="evenodd" d="M172 283C172.271 222.203 221.863 173 282.999 173C344.135 173 393.727 222.203 393.998 283H344.991C344.452 249.772 317.128 223 283.499 223C249.87 223 222.545 249.772 222.007 283H172Z" fill="#4D6980"/>
<path fill-rule="evenodd" clip-rule="evenodd" d="M344.984 283H222C222.538 249.772 249.863 223 283.492 223C317.121 223 344.445 249.772 344.984 283Z" fill="#42596E"/>
<path d="M97.68 266.824V329.928C97.68 330.867 95.2053 331.635 90.256 332.232C85.392 332.744 80.3573 333 75.152 333C70.032 333 66.704 332.787 65.168 332.36C63.7173 331.848 62.992 331.037 62.992 329.928V269.128C62.992 267.251 65.3813 265.416 70.16 263.624C75.024 261.747 80.3147 260.808 86.032 260.808C93.7973 260.808 97.68 262.813 97.68 266.824ZM80.272 233.16C85.904 233.16 90.2987 234.013 93.456 235.72C96.6987 237.341 98.32 240.328 98.32 244.68C98.32 252.36 92.3467 256.2 80.4 256.2C68.4533 256.2 62.48 252.36 62.48 244.68C62.48 237 68.4107 233.16 80.272 233.16ZM184.414 290.504V329.928C184.414 330.867 181.982 331.635 177.118 332.232C172.254 332.744 167.219 333 162.014 333C156.894 333 153.566 332.787 152.03 332.36C150.579 331.848 149.854 331.037 149.854 329.928V289.224C149.854 285.384 149.683 282.867 149.342 281.672C149.086 280.477 148.83 279.411 148.574 278.472C147.977 276.851 146.91 276.04 145.374 276.04C142.985 276.04 141.79 277.192 141.79 279.496V329.928C141.79 330.867 139.358 331.635 134.494 332.232C129.715 332.744 124.723 333 119.518 333C114.398 333 111.07 332.787 109.534 332.36C107.998 331.848 107.23 331.037 107.23 329.928V266.824C107.23 265.032 109.662 263.24 114.526 261.448C119.475 259.656 124.681 258.76 130.142 258.76C135.603 258.76 138.675 260.339 139.358 263.496L140.51 269.128H141.406C143.881 264.179 148.147 260.723 154.206 258.76C156.681 257.992 159.411 257.608 162.398 257.608C171.017 257.608 176.819 260.211 179.806 265.416C182.878 270.536 184.414 278.899 184.414 290.504ZM243.659 331.848C242.123 333.299 238.624 334.024 233.163 334.024C227.702 334.024 223.179 333.683 219.595 333C216.011 332.232 212.598 330.781 209.355 328.648C203.126 324.467 200.011 315.763 200.011 302.536V282.568H193.611C192.672 282.568 191.862 281.587 191.179 279.624C190.496 277.661 190.155 274.973 190.155 271.56C190.155 268.147 190.667 265.16 191.691 262.6C192.8 259.955 194.208 258.632 195.915 258.632H200.011V243.144C200.011 240.499 202.571 238.365 207.691 236.744C212.896 235.123 217.974 234.312 222.923 234.312C230.688 234.312 234.571 236.232 234.571 240.072V258.632H244.043C246.262 258.632 247.371 261.832 247.371 268.232C247.371 272.413 246.859 275.869 245.835 278.6C244.896 281.245 243.659 282.568 242.123 282.568H234.571V305.992C234.571 308.296 235.552 309.96 237.515 310.984C239.478 311.923 241.184 312.392 242.635 312.392C244.171 312.392 245.11 313.117 245.451 314.568C245.792 316.019 245.963 318.195 245.963 321.096C245.963 326.813 245.195 330.397 243.659 331.848ZM280.833 334.152C271.276 334.152 264.577 331.677 260.737 326.728C256.982 321.779 255.105 313.16 255.105 300.872V266.056C255.105 264.349 257.622 262.728 262.657 261.192C267.692 259.571 272.982 258.76 278.529 258.76C285.953 258.76 289.665 260.68 289.665 264.52V297.032C289.665 303.517 289.921 308.253 290.433 311.24C290.945 314.141 292.225 315.592 294.273 315.592C297.004 315.592 298.369 314.44 298.369 312.136V266.056C298.369 264.264 301.014 262.6 306.305 261.064C311.596 259.528 317.356 258.76 323.585 258.76C329.814 258.76 332.929 260.424 332.929 263.752V329.672C332.929 330.867 330.241 331.72 324.865 332.232C319.489 332.744 314.198 333 308.993 333C303.788 333 301.142 332.317 301.057 330.952L299.777 322.632H298.753C297.985 325.704 296.449 328.221 294.145 330.184C292.95 331.208 291.158 332.147 288.769 333C286.465 333.768 283.82 334.152 280.833 334.152ZM419.039 290.504V329.928C419.039 330.867 416.607 331.635 411.743 332.232C406.879 332.744 401.844 333 396.639 333C391.519 333 388.191 332.787 386.655 332.36C385.204 331.848 384.479 331.037 384.479 329.928V289.224C384.479 285.384 384.308 282.867 383.967 281.672C383.711 280.477 383.455 279.411 383.199 278.472C382.602 276.851 381.535 276.04 379.999 276.04C377.61 276.04 376.415 277.192 376.415 279.496V329.928C376.415 330.867 373.983 331.635 369.119 332.232C364.34 332.744 359.348 333 354.143 333C349.023 333 345.695 332.787 344.159 332.36C342.623 331.848 341.855 331.037 341.855 329.928V266.824C341.855 265.032 344.287 263.24 349.151 261.448C354.1 259.656 359.306 258.76 364.767 258.76C370.228 258.76 373.3 260.339 373.983 263.496L375.135 269.128H376.031C378.506 264.179 382.772 260.723 388.831 258.76C391.306 257.992 394.036 257.608 397.023 257.608C405.642 257.608 411.444 260.211 414.431 265.416C417.503 270.536 419.039 278.899 419.039 290.504ZM461.644 304.072C461.644 309.619 464.289 312.392 469.58 312.392C472.652 312.392 476.663 311.368 481.612 309.32C486.561 307.187 489.164 306.12 489.42 306.12C491.041 306.12 493.175 308.552 495.82 313.416C498.465 318.28 499.788 321.864 499.788 324.168C499.788 327.496 496.375 330.013 489.548 331.72C482.721 333.427 476.023 334.28 469.452 334.28C462.967 334.28 457.505 333.768 453.068 332.744C448.716 331.72 445.132 330.44 442.316 328.904C439.585 327.283 437.153 325.32 435.02 323.016C432.972 320.712 431.436 318.536 430.412 316.488C429.388 314.355 428.577 312.008 427.98 309.448C427.127 305.693 426.7 301.811 426.7 297.8C426.7 282.269 430.753 271.56 438.86 265.672C442.871 262.685 447.351 260.595 452.3 259.4C457.249 258.205 463.095 257.608 469.836 257.608C491.425 257.608 502.22 265.117 502.22 280.136C502.22 296.093 490.103 304.072 465.868 304.072H461.644ZM461.388 285.384V293.832C463.863 293.832 465.868 292.851 467.404 290.888C469.025 288.925 469.836 286.536 469.836 283.72C469.836 278.6 468.513 276.04 465.868 276.04C462.881 276.04 461.388 279.155 461.388 285.384Z" fill="#1C180F"/>
<path d="M90.256 332.232L91.3552 342.674L91.4347 342.666L91.5141 342.656L90.256 332.232ZM65.168 332.36L61.6734 342.261L62.0119 342.381L62.3577 342.477L65.168 332.36ZM70.16 263.624L73.8468 273.455L73.8939 273.438L73.9408 273.42L70.16 263.624ZM93.456 235.72L88.4631 244.957L88.6104 245.037L88.7603 245.111L93.456 235.72ZM87.18 266.824V329.928H108.18V266.824H87.18ZM87.18 329.928C87.18 325.025 90.4713 322.497 91.2548 321.956C92.2293 321.284 92.9371 321.11 92.7118 321.18C92.403 321.276 91.3066 321.529 88.9979 321.808L91.5141 342.656C94.1547 342.338 96.7703 341.908 98.9362 341.236C99.9483 340.922 101.584 340.342 103.177 339.244C104.579 338.277 108.18 335.301 108.18 329.928H87.18ZM89.1568 321.79C84.6804 322.261 80.0135 322.5 75.152 322.5V343.5C80.7012 343.5 86.1036 343.227 91.3552 342.674L89.1568 321.79ZM75.152 322.5C72.7114 322.5 70.8436 322.448 69.4877 322.362C67.9415 322.262 67.6385 322.149 67.9783 322.243L62.3577 342.477C64.2335 342.998 66.3625 343.204 68.1443 343.318C70.1164 343.445 72.4726 343.5 75.152 343.5V322.5ZM68.6626 322.459C68.9518 322.561 70.16 323.024 71.361 324.367C72.7582 325.928 73.492 327.956 73.492 329.928H52.492C52.492 333.01 53.5885 335.997 55.711 338.369C57.6373 340.522 59.9336 341.647 61.6734 342.261L68.6626 322.459ZM73.492 329.928V269.128H52.492V329.928H73.492ZM73.492 269.128C73.492 271.007 72.8662 272.483 72.2691 273.411C71.7242 274.258 71.2136 274.645 71.1788 274.672C71.1199 274.717 71.2715 274.594 71.7643 274.345C72.2409 274.104 72.9205 273.803 73.8468 273.455L66.4732 253.793C63.6862 254.838 60.7828 256.178 58.3892 258.016C56.1767 259.715 52.492 263.357 52.492 269.128H73.492ZM73.9408 273.42C77.4872 272.051 81.4825 271.308 86.032 271.308V250.308C79.1468 250.308 72.5608 251.442 66.3792 253.828L73.9408 273.42ZM86.032 271.308C87.5502 271.308 88.6286 271.408 89.3465 271.532C90.0909 271.66 90.2023 271.772 89.9496 271.641C89.6489 271.486 88.8364 270.981 88.1298 269.886C87.3914 268.742 87.18 267.59 87.18 266.824H108.18C108.18 264.052 107.483 261.146 105.774 258.498C104.097 255.899 101.828 254.141 99.5864 252.983C95.4084 250.825 90.4774 250.308 86.032 250.308V271.308ZM80.272 243.66C85.0582 243.66 87.4716 244.421 88.4631 244.957L98.4489 226.483C93.1257 223.606 86.7498 222.66 80.272 222.66V243.66ZM88.7603 245.111C88.7222 245.092 88.5639 245.005 88.3627 244.814C88.1568 244.619 87.9902 244.396 87.876 244.185C87.65 243.769 87.82 243.775 87.82 244.68H108.82C108.82 241.233 108.179 237.57 106.332 234.167C104.425 230.654 101.561 228.033 98.1517 226.329L88.7603 245.111ZM87.82 244.68C87.82 245.226 87.7206 245.191 87.8786 244.887C88.0546 244.547 88.2623 244.423 88.162 244.488C87.991 244.598 87.3853 244.925 86.0399 245.213C84.7026 245.5 82.8567 245.7 80.4 245.7V266.7C87.1615 266.7 94.0393 265.674 99.518 262.152C105.791 258.12 108.82 251.745 108.82 244.68H87.82ZM80.4 245.7C77.9433 245.7 76.0974 245.5 74.7601 245.213C73.4147 244.925 72.809 244.598 72.638 244.488C72.5377 244.423 72.7454 244.547 72.9214 244.887C73.0794 245.191 72.98 245.226 72.98 244.68H51.98C51.98 251.745 55.0089 258.12 61.282 262.152C66.7607 265.674 73.6385 266.7 80.4 266.7V245.7ZM72.98 244.68C72.98 244.123 73.0812 244.147 72.9275 244.446C72.7549 244.781 72.5473 244.91 72.6348 244.854C72.793 244.751 73.3805 244.429 74.7032 244.144C76.0187 243.86 77.8405 243.66 80.272 243.66V222.66C73.5442 222.66 66.6856 223.688 61.2212 227.226C54.9702 231.274 51.98 237.648 51.98 244.68H72.98ZM177.118 332.232L178.217 342.674L178.308 342.665L178.398 342.654L177.118 332.232ZM152.03 332.36L148.535 342.261L148.874 342.381L149.22 342.477L152.03 332.36ZM149.342 281.672L139.075 283.872L139.149 284.217L139.246 284.557L149.342 281.672ZM148.574 278.472L158.704 275.709L158.584 275.27L158.427 274.842L148.574 278.472ZM134.494 332.232L135.613 342.672L135.693 342.664L135.774 342.654L134.494 332.232ZM109.534 332.36L106.214 342.321L106.467 342.406L106.724 342.477L109.534 332.36ZM114.526 261.448L110.951 251.575L110.924 251.585L110.896 251.595L114.526 261.448ZM139.358 263.496L149.645 261.392L149.633 261.334L149.621 261.277L139.358 263.496ZM140.51 269.128L130.223 271.232L131.94 279.628H140.51V269.128ZM141.406 269.128V279.628H147.895L150.797 273.824L141.406 269.128ZM154.206 258.76L151.094 248.732L151.032 248.751L150.97 248.771L154.206 258.76ZM179.806 265.416L170.699 270.642L170.75 270.73L170.802 270.818L179.806 265.416ZM173.914 290.504V329.928H194.914V290.504H173.914ZM173.914 329.928C173.914 325.109 177.103 322.583 177.927 322.005C178.91 321.315 179.634 321.13 179.428 321.195C179.154 321.282 178.101 321.532 175.838 321.81L178.398 342.654C180.999 342.334 183.594 341.902 185.752 341.221C186.762 340.902 188.398 340.312 189.989 339.195C191.421 338.19 194.914 335.216 194.914 329.928H173.914ZM176.019 321.79C171.542 322.261 166.875 322.5 162.014 322.5V343.5C167.563 343.5 172.966 343.227 178.217 342.674L176.019 321.79ZM162.014 322.5C159.573 322.5 157.706 322.448 156.35 322.362C154.804 322.262 154.501 322.149 154.84 322.243L149.22 342.477C151.095 342.998 153.224 343.204 155.006 343.318C156.978 343.445 159.335 343.5 162.014 343.5V322.5ZM155.525 322.459C155.814 322.561 157.022 323.024 158.223 324.367C159.62 325.928 160.354 327.956 160.354 329.928H139.354C139.354 333.01 140.45 335.997 142.573 338.369C144.499 340.522 146.796 341.647 148.535 342.261L155.525 322.459ZM160.354 329.928V289.224H139.354V329.928H160.354ZM160.354 289.224C160.354 285.675 160.254 281.643 159.438 278.787L139.246 284.557C139.146 284.206 139.138 284.057 139.164 284.251C139.186 284.408 139.219 284.702 139.25 285.166C139.313 286.101 139.354 287.433 139.354 289.224H160.354ZM159.609 279.472C159.322 278.134 159.022 276.874 158.704 275.709L138.444 281.235C138.638 281.947 138.85 282.821 139.075 283.872L159.609 279.472ZM158.427 274.842C157.634 272.69 156.207 270.21 153.679 268.288C151.058 266.296 148.086 265.54 145.374 265.54V286.54C144.198 286.54 142.527 286.189 140.973 285.008C139.511 283.897 138.917 282.632 138.721 282.102L158.427 274.842ZM145.374 265.54C142.654 265.54 138.669 266.191 135.398 269.346C132.055 272.569 131.29 276.626 131.29 279.496H152.29C152.29 280.062 152.123 282.391 149.974 284.462C147.897 286.465 145.704 286.54 145.374 286.54V265.54ZM131.29 279.496V329.928H152.29V279.496H131.29ZM131.29 329.928C131.29 325.109 134.479 322.583 135.303 322.005C136.286 321.315 137.01 321.13 136.804 321.195C136.53 321.282 135.477 321.532 133.214 321.81L135.774 342.654C138.375 342.334 140.97 341.902 143.128 341.221C144.138 340.902 145.774 340.312 147.365 339.195C148.797 338.19 152.29 335.216 152.29 329.928H131.29ZM133.375 321.792C128.997 322.261 124.38 322.5 119.518 322.5V343.5C125.067 343.5 130.433 343.227 135.613 342.672L133.375 321.792ZM119.518 322.5C117.077 322.5 115.21 322.448 113.854 322.362C112.308 322.262 112.005 322.149 112.344 322.243L106.724 342.477C108.599 342.998 110.728 343.204 112.51 343.318C114.482 343.445 116.839 343.5 119.518 343.5V322.5ZM112.854 322.399C113.037 322.46 114.211 322.862 115.429 324.147C116.879 325.677 117.73 327.776 117.73 329.928H96.73C96.73 333.189 97.9655 336.248 100.183 338.589C102.169 340.685 104.495 341.748 106.214 342.321L112.854 322.399ZM117.73 329.928V266.824H96.73V329.928H117.73ZM117.73 266.824C117.73 268.883 117.001 270.452 116.374 271.376C115.803 272.218 115.284 272.588 115.283 272.589C115.249 272.614 115.434 272.476 115.963 272.216C116.476 271.965 117.193 271.655 118.156 271.301L110.896 251.595C108.098 252.626 105.207 253.928 102.825 255.683C100.745 257.216 96.73 260.84 96.73 266.824H117.73ZM118.101 271.321C121.861 269.959 125.853 269.26 130.142 269.26V248.26C123.508 248.26 117.09 249.353 110.951 251.575L118.101 271.321ZM130.142 269.26C131.023 269.26 131.58 269.325 131.88 269.381C132.186 269.437 132.083 269.458 131.743 269.283C131.37 269.092 130.754 268.684 130.17 267.947C129.572 267.193 129.24 266.386 129.095 265.715L149.621 261.277C148.565 256.392 145.451 252.717 141.341 250.605C137.702 248.735 133.67 248.26 130.142 248.26V269.26ZM129.071 265.6L130.223 271.232L150.797 267.024L149.645 261.392L129.071 265.6ZM140.51 279.628H141.406V258.628H140.51V279.628ZM150.797 273.824C151.82 271.778 153.622 269.986 157.442 268.749L150.97 248.771C142.672 251.459 135.941 256.579 132.015 264.432L150.797 273.824ZM157.318 268.788C158.645 268.376 160.309 268.108 162.398 268.108V247.108C158.514 247.108 154.717 247.608 151.094 248.732L157.318 268.788ZM162.398 268.108C169.073 268.108 170.34 270.017 170.699 270.642L188.913 260.19C183.299 250.405 172.961 247.108 162.398 247.108V268.108ZM170.802 270.818C172.34 273.381 173.914 279.311 173.914 290.504H194.914C194.914 278.486 193.416 267.691 188.81 260.014L170.802 270.818ZM243.659 331.848L250.869 339.482L250.869 339.482L243.659 331.848ZM219.595 333L217.395 343.267L217.512 343.292L217.63 343.315L219.595 333ZM209.355 328.648L203.503 337.366L203.543 337.393L203.584 337.42L209.355 328.648ZM200.011 282.568H210.511V272.068H200.011V282.568ZM191.179 279.624L201.096 276.175L201.096 276.175L191.179 279.624ZM191.691 262.6L182.008 258.539L181.974 258.62L181.942 258.7L191.691 262.6ZM200.011 258.632V269.132H210.511V258.632H200.011ZM207.691 236.744L204.568 226.719L204.545 226.726L204.521 226.734L207.691 236.744ZM234.571 258.632H224.071V269.132H234.571V258.632ZM245.835 278.6L236.004 274.913L235.971 275.001L235.94 275.089L245.835 278.6ZM234.571 282.568V272.068H224.071V282.568H234.571ZM237.515 310.984L232.658 320.293L232.82 320.378L232.985 320.456L237.515 310.984ZM245.451 314.568L255.672 312.163L255.672 312.163L245.451 314.568ZM236.449 324.214C237.176 323.528 237.796 323.238 237.973 323.162C238.161 323.081 238.125 323.121 237.751 323.199C236.968 323.361 235.511 323.524 233.163 323.524V344.524C236.277 344.524 239.299 344.324 242.015 343.761C244.502 343.246 248.016 342.175 250.869 339.482L236.449 324.214ZM233.163 323.524C228.071 323.524 224.262 323.2 221.56 322.685L217.63 343.315C222.096 344.165 227.333 344.524 233.163 344.524V323.524ZM221.795 322.733C219.557 322.254 217.346 321.337 215.126 319.876L203.584 337.42C207.849 340.226 212.465 342.21 217.395 343.267L221.795 322.733ZM215.207 319.93C213.538 318.81 210.511 314.892 210.511 302.536H189.511C189.511 316.633 192.713 330.124 203.503 337.366L215.207 319.93ZM210.511 302.536V282.568H189.511V302.536H210.511ZM200.011 272.068H193.611V293.068H200.011V272.068ZM193.611 272.068C197.289 272.068 199.557 274.132 200.394 275.145C201.128 276.033 201.253 276.626 201.096 276.175L181.262 283.073C181.787 284.584 182.66 286.65 184.204 288.519C185.851 290.514 188.994 293.068 193.611 293.068V272.068ZM201.096 276.175C200.968 275.805 200.655 274.453 200.655 271.56H179.655C179.655 275.494 180.025 279.518 181.262 283.073L201.096 276.175ZM200.655 271.56C200.655 269.175 201.015 267.563 201.44 266.5L181.942 258.7C180.319 262.757 179.655 267.118 179.655 271.56H200.655ZM201.374 266.661C201.611 266.096 201.529 266.562 200.768 267.277C200.345 267.675 199.694 268.163 198.795 268.545C197.875 268.935 196.886 269.132 195.915 269.132V248.132C187.531 248.132 183.534 254.9 182.008 258.539L201.374 266.661ZM195.915 269.132H200.011V248.132H195.915V269.132ZM210.511 258.632V243.144H189.511V258.632H210.511ZM210.511 243.144C210.511 244.257 210.223 245.326 209.747 246.214C209.302 247.045 208.819 247.488 208.653 247.626C208.495 247.758 208.537 247.687 208.943 247.489C209.337 247.296 209.956 247.041 210.861 246.754L204.521 226.734C201.361 227.735 197.981 229.184 195.209 231.494C192.21 233.993 189.511 237.922 189.511 243.144H210.511ZM210.814 246.769C215.11 245.431 219.134 244.812 222.923 244.812V223.812C216.813 223.812 210.683 224.815 204.568 226.719L210.814 246.769ZM222.923 244.812C224.46 244.812 225.564 244.909 226.311 245.032C227.088 245.16 227.232 245.276 227.005 245.164C226.739 245.033 225.894 244.545 225.136 243.421C224.331 242.226 224.071 240.973 224.071 240.072H245.071C245.071 237.251 244.326 234.318 242.55 231.683C240.821 229.119 238.52 227.431 236.313 226.34C232.193 224.302 227.333 223.812 222.923 223.812V244.812ZM224.071 240.072V258.632H245.071V240.072H224.071ZM234.571 269.132H244.043V248.132H234.571V269.132ZM244.043 269.132C243.027 269.132 241.92 268.942 240.822 268.49C239.733 268.041 238.868 267.422 238.221 266.801C237.016 265.642 236.649 264.561 236.618 264.471C236.563 264.313 236.648 264.505 236.732 265.237C236.813 265.933 236.871 266.914 236.871 268.232H257.871C257.871 264.71 257.602 260.887 256.46 257.593C255.351 254.395 251.886 248.132 244.043 248.132V269.132ZM236.871 268.232C236.871 271.655 236.438 273.753 236.004 274.913L255.666 282.287C257.28 277.985 257.871 273.172 257.871 268.232H236.871ZM235.94 275.089C235.715 275.721 235.776 275.214 236.535 274.403C236.965 273.944 237.67 273.333 238.699 272.843C239.764 272.335 240.943 272.068 242.123 272.068V293.068C251.071 293.068 254.633 285.203 255.73 282.111L235.94 275.089ZM242.123 272.068H234.571V293.068H242.123V272.068ZM224.071 282.568V305.992H245.071V282.568H224.071ZM224.071 305.992C224.071 308.657 224.65 311.567 226.263 314.302C227.889 317.06 230.196 319.009 232.658 320.293L242.372 301.675C242.871 301.935 243.706 302.54 244.351 303.634C244.983 304.705 245.071 305.631 245.071 305.992H224.071ZM232.985 320.456C235.717 321.763 239.031 322.892 242.635 322.892V301.892C243.03 301.892 243.189 301.954 243.051 301.916C242.916 301.879 242.587 301.771 242.045 301.512L232.985 320.456ZM242.635 322.892C241.769 322.892 239.92 322.673 238.071 321.244C236.187 319.789 235.467 317.978 235.23 316.973L255.672 312.163C255.094 309.707 253.734 306.809 250.911 304.628C248.123 302.473 245.037 301.892 242.635 301.892V322.892ZM235.23 316.973C235.228 316.966 235.249 317.053 235.278 317.26C235.307 317.462 235.338 317.742 235.367 318.109C235.425 318.852 235.463 319.836 235.463 321.096H256.463C256.463 317.995 256.3 314.831 255.672 312.163L235.23 316.973ZM235.463 321.096C235.463 323.577 235.288 325.087 235.12 325.872C235.04 326.246 235.006 326.238 235.119 325.991C235.228 325.754 235.598 325.018 236.449 324.214L250.869 339.482C253.951 336.571 255.114 332.789 255.654 330.272C256.254 327.473 256.463 324.332 256.463 321.096H235.463ZM260.737 326.728L252.372 333.074L252.406 333.119L252.441 333.164L260.737 326.728ZM262.657 261.192L265.721 271.235L265.798 271.211L265.876 271.187L262.657 261.192ZM290.433 311.24L280.084 313.014L280.088 313.039L280.093 313.065L290.433 311.24ZM306.305 261.064L309.233 271.148L309.233 271.148L306.305 261.064ZM324.865 332.232L325.861 342.685L325.861 342.685L324.865 332.232ZM301.057 330.952L311.537 330.297L311.507 329.824L311.435 329.355L301.057 330.952ZM299.777 322.632L310.155 321.035L308.785 312.132H299.777V322.632ZM298.753 322.632V312.132H290.555L288.567 320.085L298.753 322.632ZM294.145 330.184L287.336 322.191L287.324 322.201L287.312 322.212L294.145 330.184ZM288.769 333L292.089 342.961L292.195 342.926L292.301 342.888L288.769 333ZM280.833 323.652C272.775 323.652 270.015 321.558 269.033 320.292L252.441 333.164C259.139 341.797 269.776 344.652 280.833 344.652V323.652ZM269.102 320.382C267.552 318.339 265.605 312.756 265.605 300.872H244.605C244.605 313.564 246.412 325.218 252.372 333.074L269.102 320.382ZM265.605 300.872V266.056H244.605V300.872H265.605ZM265.605 266.056C265.605 268.387 264.702 270.134 263.951 271.126C263.594 271.598 263.266 271.913 263.059 272.093C262.85 272.275 262.708 272.369 262.679 272.388C262.64 272.412 262.837 272.284 263.403 272.047C263.949 271.819 264.708 271.544 265.721 271.235L259.593 251.149C256.737 252.02 253.771 253.146 251.307 254.732C249.298 256.026 244.605 259.598 244.605 266.056H265.605ZM265.876 271.187C269.821 269.916 274.021 269.26 278.529 269.26V248.26C271.943 248.26 265.563 249.225 259.438 251.197L265.876 271.187ZM278.529 269.26C279.961 269.26 280.964 269.355 281.617 269.467C282.296 269.584 282.353 269.679 282.057 269.526C281.712 269.348 280.869 268.815 280.143 267.688C279.385 266.512 279.165 265.326 279.165 264.52H300.165C300.165 261.794 299.481 258.928 297.795 256.312C296.141 253.745 293.906 252.012 291.705 250.874C287.61 248.756 282.805 248.26 278.529 248.26V269.26ZM279.165 264.52V297.032H300.165V264.52H279.165ZM279.165 297.032C279.165 303.599 279.411 309.091 280.084 313.014L300.782 309.466C300.431 307.415 300.165 303.435 300.165 297.032H279.165ZM280.093 313.065C280.522 315.498 281.484 318.709 283.904 321.451C286.666 324.581 290.436 326.092 294.273 326.092V305.092C295.02 305.092 296.009 305.229 297.077 305.695C298.159 306.166 299.023 306.846 299.65 307.557C300.79 308.849 300.856 309.884 300.773 309.415L280.093 313.065ZM294.273 326.092C296.863 326.092 300.762 325.583 304.116 322.753C307.812 319.635 308.869 315.418 308.869 312.136H287.869C287.869 311.158 288.243 308.669 290.574 306.703C291.576 305.857 292.563 305.454 293.222 305.268C293.854 305.09 294.252 305.092 294.273 305.092V326.092ZM308.869 312.136V266.056H287.869V312.136H308.869ZM308.869 266.056C308.869 268.376 307.966 270.121 307.203 271.118C306.842 271.589 306.512 271.9 306.308 272.075C306.101 272.252 305.964 272.339 305.944 272.352C305.924 272.364 306.151 272.224 306.76 271.978C307.347 271.741 308.158 271.46 309.233 271.148L303.377 250.98C300.391 251.847 297.312 252.972 294.762 254.576C292.66 255.899 287.869 259.501 287.869 266.056H308.869ZM309.233 271.148C313.457 269.921 318.219 269.26 323.585 269.26V248.26C316.492 248.26 309.734 249.135 303.377 250.98L309.233 271.148ZM323.585 269.26C324.704 269.26 325.426 269.337 325.832 269.409C326.263 269.486 326.109 269.517 325.645 269.269C325.127 268.992 324.199 268.347 323.437 267.126C322.654 265.872 322.429 264.621 322.429 263.752H343.429C343.429 261.219 342.815 258.512 341.253 256.01C339.713 253.541 337.616 251.855 335.541 250.747C331.703 248.697 327.292 248.26 323.585 248.26V269.26ZM322.429 263.752V329.672H343.429V263.752H322.429ZM322.429 329.672C322.429 325.484 324.934 323.011 326.062 322.152C326.648 321.706 327.132 321.461 327.363 321.353C327.492 321.293 327.59 321.254 327.648 321.232C327.677 321.22 327.7 321.212 327.714 321.208C327.721 321.205 327.727 321.203 327.73 321.202C327.734 321.201 327.736 321.2 327.736 321.2C327.736 321.2 327.73 321.202 327.716 321.206C327.703 321.21 327.684 321.215 327.659 321.222C327.607 321.236 327.535 321.254 327.439 321.276C327.246 321.32 326.982 321.373 326.64 321.431C325.948 321.549 325.035 321.668 323.87 321.779L325.861 342.685C328.747 342.41 331.658 341.988 334.09 341.216C335.249 340.848 337.064 340.17 338.788 338.856C340.588 337.485 343.429 334.457 343.429 329.672H322.429ZM323.87 321.779C318.812 322.261 313.854 322.5 308.993 322.5V343.5C314.543 343.5 320.166 343.227 325.861 342.685L323.87 321.779ZM308.993 322.5C307.905 322.5 307.079 322.464 306.479 322.411C305.846 322.356 305.642 322.299 305.729 322.321C305.785 322.336 306.01 322.396 306.344 322.538C306.668 322.676 307.239 322.952 307.901 323.448C308.572 323.951 309.444 324.764 310.184 325.983C310.956 327.253 311.439 328.734 311.537 330.297L290.577 331.607C290.837 335.756 293.16 338.643 295.301 340.248C297.202 341.674 299.195 342.323 300.481 342.655C303.117 343.335 306.15 343.5 308.993 343.5V322.5ZM311.435 329.355L310.155 321.035L289.399 324.229L290.679 332.549L311.435 329.355ZM299.777 312.132H298.753V333.132H299.777V312.132ZM288.567 320.085C288.303 321.139 287.894 321.716 287.336 322.191L300.954 338.177C305.004 334.727 307.667 330.269 308.939 325.179L288.567 320.085ZM287.312 322.212C287.458 322.086 287.415 322.154 287.033 322.355C286.662 322.549 286.082 322.81 285.237 323.112L292.301 342.888C295.25 341.835 298.396 340.369 300.978 338.156L287.312 322.212ZM285.449 323.039C284.429 323.379 282.94 323.652 280.833 323.652V344.652C284.699 344.652 288.501 344.157 292.089 342.961L285.449 323.039ZM411.743 332.232L412.842 342.674L412.933 342.665L413.023 342.654L411.743 332.232ZM386.655 332.36L383.16 342.261L383.499 342.381L383.845 342.477L386.655 332.36ZM383.967 281.672L373.7 283.872L373.774 284.217L373.871 284.557L383.967 281.672ZM383.199 278.472L393.329 275.709L393.209 275.27L393.052 274.842L383.199 278.472ZM369.119 332.232L370.238 342.672L370.318 342.664L370.399 342.654L369.119 332.232ZM344.159 332.36L340.839 342.321L341.092 342.406L341.349 342.477L344.159 332.36ZM349.151 261.448L345.576 251.575L345.549 251.585L345.521 251.595L349.151 261.448ZM373.983 263.496L384.27 261.392L384.258 261.334L384.246 261.277L373.983 263.496ZM375.135 269.128L364.848 271.232L366.565 279.628H375.135V269.128ZM376.031 269.128V279.628H382.52L385.422 273.824L376.031 269.128ZM388.831 258.76L385.719 248.732L385.657 248.751L385.595 248.771L388.831 258.76ZM414.431 265.416L405.324 270.642L405.375 270.73L405.427 270.818L414.431 265.416ZM408.539 290.504V329.928H429.539V290.504H408.539ZM408.539 329.928C408.539 325.109 411.728 322.583 412.552 322.005C413.535 321.315 414.259 321.13 414.053 321.195C413.779 321.282 412.726 321.532 410.463 321.81L413.023 342.654C415.624 342.334 418.219 341.902 420.377 341.221C421.387 340.902 423.023 340.312 424.614 339.195C426.046 338.19 429.539 335.216 429.539 329.928H408.539ZM410.644 321.79C406.167 322.261 401.5 322.5 396.639 322.5V343.5C402.188 343.5 407.591 343.227 412.842 342.674L410.644 321.79ZM396.639 322.5C394.198 322.5 392.331 322.448 390.975 322.362C389.429 322.262 389.126 322.149 389.465 322.243L383.845 342.477C385.72 342.998 387.849 343.204 389.631 343.318C391.603 343.445 393.96 343.5 396.639 343.5V322.5ZM390.15 322.459C390.439 322.561 391.647 323.024 392.848 324.367C394.245 325.928 394.979 327.956 394.979 329.928H373.979C373.979 333.01 375.075 335.997 377.198 338.369C379.124 340.522 381.421 341.647 383.16 342.261L390.15 322.459ZM394.979 329.928V289.224H373.979V329.928H394.979ZM394.979 289.224C394.979 285.675 394.879 281.643 394.063 278.787L373.871 284.557C373.771 284.206 373.763 284.057 373.789 284.251C373.811 284.408 373.844 284.702 373.875 285.166C373.938 286.101 373.979 287.433 373.979 289.224H394.979ZM394.234 279.472C393.947 278.134 393.647 276.874 393.329 275.709L373.069 281.235C373.263 281.947 373.475 282.821 373.7 283.872L394.234 279.472ZM393.052 274.842C392.259 272.69 390.832 270.21 388.304 268.288C385.683 266.296 382.711 265.54 379.999 265.54V286.54C378.823 286.54 377.152 286.189 375.598 285.008C374.136 283.897 373.542 282.632 373.346 282.102L393.052 274.842ZM379.999 265.54C377.279 265.54 373.294 266.191 370.023 269.346C366.68 272.569 365.915 276.626 365.915 279.496H386.915C386.915 280.062 386.748 282.391 384.599 284.462C382.522 286.465 380.329 286.54 379.999 286.54V265.54ZM365.915 279.496V329.928H386.915V279.496H365.915ZM365.915 329.928C365.915 325.109 369.104 322.583 369.928 322.005C370.911 321.315 371.635 321.13 371.429 321.195C371.155 321.282 370.102 321.532 367.839 321.81L370.399 342.654C373 342.334 375.595 341.902 377.753 341.221C378.763 340.902 380.399 340.312 381.99 339.195C383.422 338.19 386.915 335.216 386.915 329.928H365.915ZM368 321.792C363.622 322.261 359.005 322.5 354.143 322.5V343.5C359.692 343.5 365.058 343.227 370.238 342.672L368 321.792ZM354.143 322.5C351.702 322.5 349.835 322.448 348.479 322.362C346.933 322.262 346.63 322.149 346.969 322.243L341.349 342.477C343.224 342.998 345.353 343.204 347.135 343.318C349.107 343.445 351.464 343.5 354.143 343.5V322.5ZM347.479 322.399C347.662 322.46 348.836 322.862 350.054 324.147C351.504 325.677 352.355 327.776 352.355 329.928H331.355C331.355 333.189 332.59 336.248 334.808 338.589C336.794 340.685 339.12 341.748 340.839 342.321L347.479 322.399ZM352.355 329.928V266.824H331.355V329.928H352.355ZM352.355 266.824C352.355 268.883 351.626 270.452 350.999 271.376C350.428 272.218 349.909 272.588 349.908 272.589C349.874 272.614 350.059 272.476 350.588 272.216C351.101 271.965 351.818 271.655 352.781 271.301L345.521 251.595C342.723 252.626 339.832 253.928 337.45 255.683C335.37 257.216 331.355 260.84 331.355 266.824H352.355ZM352.726 271.321C356.486 269.959 360.478 269.26 364.767 269.26V248.26C358.133 248.26 351.715 249.353 345.576 251.575L352.726 271.321ZM364.767 269.26C365.648 269.26 366.205 269.325 366.505 269.381C366.811 269.437 366.708 269.458 366.368 269.283C365.995 269.092 365.379 268.684 364.795 267.947C364.197 267.193 363.865 266.386 363.72 265.715L384.246 261.277C383.19 256.392 380.076 252.717 375.966 250.605C372.327 248.735 368.295 248.26 364.767 248.26V269.26ZM363.696 265.6L364.848 271.232L385.422 267.024L384.27 261.392L363.696 265.6ZM375.135 279.628H376.031V258.628H375.135V279.628ZM385.422 273.824C386.445 271.778 388.247 269.986 392.067 268.749L385.595 248.771C377.297 251.459 370.566 256.579 366.64 264.432L385.422 273.824ZM391.943 268.788C393.27 268.376 394.934 268.108 397.023 268.108V247.108C393.139 247.108 389.342 247.608 385.719 248.732L391.943 268.788ZM397.023 268.108C403.698 268.108 404.965 270.017 405.324 270.642L423.538 260.19C417.924 250.405 407.586 247.108 397.023 247.108V268.108ZM405.427 270.818C406.965 273.381 408.539 279.311 408.539 290.504H429.539C429.539 278.486 428.041 267.691 423.435 260.014L405.427 270.818ZM461.644 304.072V293.572H451.144V304.072H461.644ZM481.612 309.32L485.627 319.022L485.698 318.993L485.768 318.962L481.612 309.32ZM495.82 313.416L486.596 318.433L486.596 318.433L495.82 313.416ZM489.548 331.72L492.095 341.906L492.095 341.906L489.548 331.72ZM453.068 332.744L450.663 342.965L450.685 342.97L450.707 342.975L453.068 332.744ZM442.316 328.904L436.955 337.932L437.12 338.03L437.288 338.122L442.316 328.904ZM435.02 323.016L427.172 329.992L427.243 330.072L427.316 330.15L435.02 323.016ZM430.412 316.488L420.946 321.032L420.983 321.108L421.021 321.184L430.412 316.488ZM427.98 309.448L417.741 311.775L417.748 311.804L417.755 311.834L427.98 309.448ZM438.86 265.672L445.03 274.168L445.081 274.131L445.131 274.093L438.86 265.672ZM452.3 259.4L449.836 249.193L449.836 249.193L452.3 259.4ZM461.388 293.832H450.888V304.332H461.388V293.832ZM467.404 290.888L459.309 284.201L459.221 284.308L459.135 284.417L467.404 290.888ZM451.144 304.072C451.144 308.343 452.154 313.496 456.03 317.559C459.994 321.715 465.186 322.892 469.58 322.892V301.892C469.145 301.892 469.205 301.832 469.572 301.96C469.995 302.108 470.632 302.442 471.226 303.065C472.456 304.355 472.144 305.347 472.144 304.072H451.144ZM469.58 322.892C474.693 322.892 480.21 321.264 485.627 319.022L477.597 299.618C473.116 301.472 470.611 301.892 469.58 301.892V322.892ZM485.768 318.962C488.227 317.903 490.046 317.132 491.258 316.636C491.876 316.382 492.258 316.232 492.459 316.157C492.572 316.115 492.524 316.136 492.382 316.181C492.318 316.201 492.11 316.266 491.821 316.336C491.674 316.372 491.423 316.429 491.104 316.482C490.841 316.526 490.221 316.62 489.42 316.62V295.62C488.055 295.62 486.98 295.901 486.868 295.929C486.51 296.016 486.215 296.106 486.046 296.159C485.694 296.271 485.362 296.391 485.117 296.483C484.603 296.674 483.978 296.924 483.294 297.204C481.904 297.774 479.946 298.604 477.456 299.678L485.768 318.962ZM489.42 316.62C487.167 316.62 485.632 315.782 485.024 315.389C484.408 314.99 484.19 314.694 484.343 314.868C484.463 315.005 484.734 315.344 485.148 315.977C485.554 316.596 486.037 317.405 486.596 318.433L505.044 308.399C503.572 305.693 501.945 303.089 500.129 301.02C498.827 299.535 495.164 295.62 489.42 295.62V316.62ZM486.596 318.433C487.774 320.599 488.518 322.229 488.945 323.387C489.422 324.678 489.288 324.807 489.288 324.168H510.288C510.288 321.225 509.493 318.41 508.647 316.117C507.751 313.691 506.511 311.097 505.044 308.399L486.596 318.433ZM489.288 324.168C489.288 323.106 489.586 322.065 490.081 321.217C490.532 320.444 490.981 320.113 490.996 320.102C491.004 320.096 490.739 320.286 490.024 320.581C489.324 320.87 488.337 321.2 487.001 321.534L492.095 341.906C496.076 340.911 500.157 339.438 503.46 337.002C507.037 334.365 510.288 330.063 510.288 324.168H489.288ZM487.001 321.534C480.949 323.047 475.106 323.78 469.452 323.78V344.78C476.94 344.78 484.494 343.807 492.095 341.906L487.001 321.534ZM469.452 323.78C463.456 323.78 458.842 323.301 455.429 322.513L450.707 342.975C456.168 344.235 462.477 344.78 469.452 344.78V323.78ZM455.473 322.523C451.706 321.637 449.082 320.634 447.344 319.686L437.288 338.122C441.182 340.246 445.726 341.803 450.663 342.965L455.473 322.523ZM447.677 319.876C445.804 318.764 444.164 317.437 442.724 315.882L427.316 330.15C430.143 333.203 433.366 335.802 436.955 337.932L447.677 319.876ZM442.868 316.04C441.236 314.204 440.301 312.787 439.803 311.792L421.021 321.184C422.571 324.285 424.708 327.22 427.172 329.992L442.868 316.04ZM439.878 311.944C439.219 310.572 438.648 308.958 438.205 307.062L417.755 311.834C418.507 315.058 419.557 318.138 420.946 321.032L439.878 311.944ZM438.219 307.121C437.546 304.161 437.2 301.06 437.2 297.8H416.2C416.2 302.561 416.707 307.226 417.741 311.775L438.219 307.121ZM437.2 297.8C437.2 283.729 440.884 277.18 445.03 274.168L432.69 257.176C420.623 265.94 416.2 280.809 416.2 297.8H437.2ZM445.131 274.093C447.985 271.968 451.165 270.475 454.764 269.607L449.836 249.193C443.536 250.714 437.756 253.402 432.589 257.251L445.131 274.093ZM454.764 269.607C458.695 268.658 463.674 268.108 469.836 268.108V247.108C462.515 247.108 455.804 247.753 449.836 249.193L454.764 269.607ZM469.836 268.108C479.737 268.108 485.294 269.888 488.128 271.859C490.269 273.349 491.72 275.498 491.72 280.136H512.72C512.72 269.755 508.773 260.64 500.12 254.62C492.159 249.082 481.525 247.108 469.836 247.108V268.108ZM491.72 280.136C491.72 285 490.134 287.49 487.358 289.318C483.814 291.652 477.167 293.572 465.868 293.572V314.572C478.804 314.572 490.332 312.503 498.906 306.858C508.247 300.707 512.72 291.229 512.72 280.136H491.72ZM465.868 293.572H461.644V314.572H465.868V293.572ZM450.888 285.384V293.832H471.888V285.384H450.888ZM461.388 304.332C467.119 304.332 472.163 301.844 475.673 297.359L459.135 284.417C459.231 284.295 459.551 283.949 460.133 283.665C460.717 283.379 461.201 283.332 461.388 283.332V304.332ZM475.499 297.575C478.842 293.528 480.336 288.7 480.336 283.72H459.336C459.336 283.92 459.322 284.055 459.309 284.136C459.297 284.216 459.285 284.25 459.285 284.25C459.284 284.251 459.286 284.248 459.289 284.24C459.293 284.232 459.297 284.223 459.302 284.214C459.314 284.193 459.319 284.188 459.309 284.201L475.499 297.575ZM480.336 283.72C480.336 280.597 479.99 276.657 478.172 273.14C477.185 271.229 475.639 269.208 473.296 267.697C470.904 266.154 468.298 265.54 465.868 265.54V286.54C464.761 286.54 463.312 286.246 461.912 285.343C460.561 284.472 459.842 283.411 459.516 282.78C459.214 282.196 459.198 281.894 459.24 282.142C459.279 282.364 459.336 282.863 459.336 283.72H480.336ZM465.868 265.54C463.191 265.54 460.401 266.274 457.914 268.003C455.516 269.67 453.993 271.848 453.04 273.837C451.268 277.532 450.888 281.765 450.888 285.384H471.888C471.888 284.219 471.96 283.433 472.036 282.953C472.118 282.443 472.168 282.515 471.976 282.915C471.769 283.347 471.18 284.356 469.902 285.245C468.535 286.195 467.051 286.54 465.868 286.54V265.54Z" fill="#D1C8C1"/>
<path d="M97.68 266.824L97.68 329.928C97.68 330.867 95.2053 331.635 90.256 332.232C85.392 332.744 80.3573 333 75.152 333C70.032 333 66.704 332.787 65.168 332.36C63.7173 331.848 62.992 331.037 62.992 329.928L62.992 269.128C62.992 267.251 65.3813 265.416 70.16 263.624C75.024 261.747 80.3147 260.808 86.032 260.808C93.7973 260.808 97.68 262.813 97.68 266.824ZM80.272 233.16C85.904 233.16 90.2987 234.013 93.456 235.72C96.6987 237.341 98.32 240.328 98.32 244.68C98.32 252.36 92.3467 256.2 80.4 256.2C68.4533 256.2 62.48 252.36 62.48 244.68C62.48 237 68.4107 233.16 80.272 233.16ZM184.414 290.504L184.414 329.928C184.414 330.867 181.982 331.635 177.118 332.232C172.254 332.744 167.219 333 162.014 333C156.894 333 153.566 332.787 152.03 332.36C150.579 331.848 149.854 331.037 149.854 329.928L149.854 289.224C149.854 285.384 149.683 282.867 149.342 281.672C149.086 280.477 148.83 279.411 148.574 278.472C147.977 276.851 146.91 276.04 145.374 276.04C142.985 276.04 141.79 277.192 141.79 279.496L141.79 329.928C141.79 330.867 139.358 331.635 134.494 332.232C129.715 332.744 124.723 333 119.518 333C114.398 333 111.07 332.787 109.534 332.36C107.998 331.848 107.23 331.037 107.23 329.928L107.23 266.824C107.23 265.032 109.662 263.24 114.526 261.448C119.475 259.656 124.681 258.76 130.142 258.76C135.603 258.76 138.675 260.339 139.358 263.496L140.51 269.128L141.406 269.128C143.881 264.179 148.147 260.723 154.206 258.76C156.681 257.992 159.411 257.608 162.398 257.608C171.017 257.608 176.819 260.211 179.806 265.416C182.878 270.536 184.414 278.899 184.414 290.504ZM243.659 331.848C242.123 333.299 238.624 334.024 233.163 334.024C227.702 334.024 223.179 333.683 219.595 333C216.011 332.232 212.598 330.781 209.355 328.648C203.126 324.467 200.011 315.763 200.011 302.536L200.011 282.568L193.611 282.568C192.672 282.568 191.862 281.587 191.179 279.624C190.496 277.661 190.155 274.973 190.155 271.56C190.155 268.147 190.667 265.16 191.691 262.6C192.8 259.955 194.208 258.632 195.915 258.632L200.011 258.632L200.011 243.144C200.011 240.499 202.571 238.365 207.691 236.744C212.896 235.123 217.974 234.312 222.923 234.312C230.688 234.312 234.571 236.232 234.571 240.072L234.571 258.632L244.043 258.632C246.262 258.632 247.371 261.832 247.371 268.232C247.371 272.413 246.859 275.869 245.835 278.6C244.896 281.245 243.659 282.568 242.123 282.568L234.571 282.568L234.571 305.992C234.571 308.296 235.552 309.96 237.515 310.984C239.478 311.923 241.184 312.392 242.635 312.392C244.171 312.392 245.11 313.117 245.451 314.568C245.792 316.019 245.963 318.195 245.963 321.096C245.963 326.813 245.195 330.397 243.659 331.848ZM280.833 334.152C271.276 334.152 264.577 331.677 260.737 326.728C256.982 321.779 255.105 313.16 255.105 300.872L255.105 266.056C255.105 264.349 257.622 262.728 262.657 261.192C267.692 259.571 272.982 258.76 278.529 258.76C285.953 258.76 289.665 260.68 289.665 264.52L289.665 297.032C289.665 303.517 289.921 308.253 290.433 311.24C290.945 314.141 292.225 315.592 294.273 315.592C297.004 315.592 298.369 314.44 298.369 312.136L298.369 266.056C298.369 264.264 301.014 262.6 306.305 261.064C311.596 259.528 317.356 258.76 323.585 258.76C329.814 258.76 332.929 260.424 332.929 263.752L332.929 329.672C332.929 330.867 330.241 331.72 324.865 332.232C319.489 332.744 314.198 333 308.993 333C303.788 333 301.142 332.317 301.057 330.952L299.777 322.632L298.753 322.632C297.985 325.704 296.449 328.221 294.145 330.184C292.95 331.208 291.158 332.147 288.769 333C286.465 333.768 283.82 334.152 280.833 334.152ZM419.039 290.504L419.039 329.928C419.039 330.867 416.607 331.635 411.743 332.232C406.879 332.744 401.844 333 396.639 333C391.519 333 388.191 332.787 386.655 332.36C385.204 331.848 384.479 331.037 384.479 329.928L384.479 289.224C384.479 285.384 384.308 282.867 383.967 281.672C383.711 280.477 383.455 279.411 383.199 278.472C382.602 276.851 381.535 276.04 379.999 276.04C377.61 276.04 376.415 277.192 376.415 279.496L376.415 329.928C376.415 330.867 373.983 331.635 369.119 332.232C364.34 332.744 359.348 333 354.143 333C349.023 333 345.695 332.787 344.159 332.36C342.623 331.848 341.855 331.037 341.855 329.928L341.855 266.824C341.855 265.032 344.287 263.24 349.151 261.448C354.1 259.656 359.306 258.76 364.767 258.76C370.228 258.76 373.3 260.339 373.983 263.496L375.135 269.128L376.031 269.128C378.506 264.179 382.772 260.723 388.831 258.76C391.306 257.992 394.036 257.608 397.023 257.608C405.642 257.608 411.444 260.211 414.431 265.416C417.503 270.536 419.039 278.899 419.039 290.504ZM461.644 304.072C461.644 309.619 464.289 312.392 469.58 312.392C472.652 312.392 476.663 311.368 481.612 309.32C486.561 307.187 489.164 306.12 489.42 306.12C491.041 306.12 493.175 308.552 495.82 313.416C498.465 318.28 499.788 321.864 499.788 324.168C499.788 327.496 496.375 330.013 489.548 331.72C482.721 333.427 476.023 334.28 469.452 334.28C462.967 334.28 457.505 333.768 453.068 332.744C448.716 331.72 445.132 330.44 442.316 328.904C439.585 327.283 437.153 325.32 435.02 323.016C432.972 320.712 431.436 318.536 430.412 316.488C429.388 314.355 428.577 312.008 427.98 309.448C427.127 305.693 426.7 301.811 426.7 297.8C426.7 282.269 430.753 271.56 438.86 265.672C442.871 262.685 447.351 260.595 452.3 259.4C457.249 258.205 463.095 257.608 469.836 257.608C491.425 257.608 502.22 265.117 502.22 280.136C502.22 296.093 490.103 304.072 465.868 304.072L461.644 304.072ZM461.388 285.384L461.388 293.832C463.863 293.832 465.868 292.851 467.404 290.888C469.025 288.925 469.836 286.536 469.836 283.72C469.836 278.6 468.513 276.04 465.868 276.04C462.881 276.04 461.388 279.155 461.388 285.384Z" fill="#1C180F"/>
<path d="M394.93 123.475L463.812 45.3484L474.612 57.5903L406.67 132.824L411.589 137.103L375.871 186.34L388.946 196.901L386.522 199.571L373.373 189.504L369.168 193.928L346.453 176.86L388.528 118.973L394.93 123.475Z" fill="#D1C8C1"/>
<circle cx="391.488" cy="139.643" r="8" transform="rotate(8.5509 391.488 139.643)" fill="#6487A5"/>
<circle cx="379.911" cy="156.105" r="8" transform="rotate(8.5509 379.911 156.105)" fill="#6487A5"/>
<circle cx="367.346" cy="172.418" r="8" transform="rotate(8.5509 367.346 172.418)" fill="#6487A5"/>
</svg>
